<?xml version="1.0" standalone="no"?>
<!DOCTYPE svg PUBLIC "-//W3C//DTD SVG 20010904//EN"
 "http://www.w3.org/TR/2001/REC-SVG-20010904/DTD/svg10.dtd">
<svg version="1.0" xmlns="http://www.w3.org/2000/svg"
 width="1211.000000pt" height="1211.000000pt" viewBox="0 0 1211.000000 1211.000000"
 preserveAspectRatio="xMidYMid meet">
<metadata>
Created by potrace 1.11, written by Peter Selinger 2001-2013
</metadata>
<g transform="translate(0.000000,1211.000000) scale(0.100000,-0.100000)"
fill="#000000" stroke="none">
<path d="M3405 7548 c-92 -36 -153 -88 -203 -174 -117 -201 -11 -408 205 -400
162 6 315 144 341 309 9 60 9 72 -9 135 -34 122 -195 185 -334 130z m185 -108
c81 -58 57 -237 -43 -313 -54 -41 -78 -50 -136 -50 -98 -1 -144 49 -140 151 4
94 54 173 139 215 60 30 135 29 180 -3z"/>
<path d="M1125 7551 c-3 -6 -8 -28 -11 -50 -4 -30 -2 -41 8 -42 7 -1 40 -3 73
-4 33 -1 63 -3 66 -4 4 0 3 -18 -2 -38 -5 -21 -16 -69 -23 -108 -8 -38 -26
-124 -40 -190 -14 -65 -26 -123 -26 -127 0 -4 24 -8 54 -8 58 0 59 1 70 60 3
14 14 70 26 125 12 55 24 111 26 125 2 14 7 36 10 50 3 14 8 36 11 50 3 14 6
32 8 40 2 8 4 17 4 20 1 3 31 5 69 5 95 -1 100 1 110 49 5 22 7 44 5 49 -6 11
-431 9 -438 -2z"/>
<path d="M1620 7534 c-6 -14 -10 -33 -10 -43 0 -10 -4 -31 -10 -47 -5 -16 -11
-42 -14 -59 -2 -16 -18 -97 -36 -180 -29 -137 -37 -177 -43 -209 -3 -15 392
-21 407 -6 5 5 11 17 12 27 2 9 5 27 9 40 6 27 18 25 -155 27 -151 1 -140 -6
-126 84 4 28 13 53 19 53 7 1 53 3 102 4 50 1 98 3 107 4 11 1 20 15 26 44 5
23 7 45 5 50 -2 4 -54 7 -115 7 -109 0 -110 0 -105 23 3 12 9 39 12 60 4 20
10 38 14 38 3 1 67 3 141 4 74 2 138 3 141 4 6 1 29 79 29 95 0 3 -90 6 -200
6 l-200 0 -10 -26z"/>
<path d="M2112 7533 c-6 -16 -28 -80 -48 -143 -20 -63 -45 -142 -56 -175 -11
-33 -21 -67 -23 -75 -2 -8 -13 -44 -24 -79 -12 -35 -21 -68 -21 -73 0 -5 24
-8 53 -6 l52 3 61 185 c64 194 65 196 78 90 10 -84 37 -254 42 -262 3 -4 23
-8 44 -8 l38 0 83 143 c45 78 93 160 106 182 l24 40 -6 -70 c-3 -38 -8 -83
-10 -100 -2 -16 -7 -64 -11 -105 -3 -41 -7 -79 -8 -85 0 -5 23 -11 52 -13 28
-2 52 1 53 5 0 4 2 15 3 23 2 8 7 51 11 94 4 43 8 86 10 95 3 18 15 133 21
196 1 22 6 68 9 103 l6 62 -59 0 c-67 0 -71 -4 -117 -90 -16 -30 -49 -91 -74
-135 -25 -44 -57 -101 -71 -127 -25 -48 -36 -59 -37 -35 0 6 -3 35 -7 62 -4
28 -10 66 -12 85 -2 19 -6 46 -9 60 -2 14 -7 45 -10 70 -3 25 -8 54 -10 65 -2
11 -4 26 -4 33 -1 8 -20 12 -60 12 -55 0 -59 -2 -69 -27z"/>
<path d="M2766 7543 c-2 -10 -7 -31 -10 -48 -10 -46 -12 -60 -46 -220 -18 -82
-34 -161 -36 -175 -3 -14 -7 -32 -9 -40 -2 -8 -7 -30 -10 -48 l-5 -33 57 3
c32 2 57 6 56 10 -1 4 3 22 8 40 5 18 12 47 15 63 3 17 7 37 9 45 2 8 4 23 4
33 1 15 12 17 79 17 101 0 144 13 194 58 76 68 99 167 57 242 -33 59 -68 70
-224 70 -119 0 -134 -2 -139 -17z m261 -95 c26 -25 29 -57 8 -97 -20 -40 -71
-61 -145 -61 l-62 0 7 48 c3 26 11 66 17 90 l10 42 71 0 c59 0 75 -4 94 -22z"/>
<path d="M3870 7534 c-6 -14 -10 -34 -10 -44 0 -10 -4 -30 -9 -43 -6 -14 -12
-45 -16 -68 -3 -24 -8 -52 -11 -61 -3 -9 -7 -25 -9 -35 -12 -62 -38 -181 -42
-198 -3 -11 -7 -39 -10 -63 l-5 -43 53 3 c57 3 59 6 74 93 3 17 10 46 16 66
l9 37 61 -2 c70 -2 67 2 99 -113 l23 -82 116 0 117 0 31 52 32 53 115 -1 c63
0 117 -3 120 -6 3 -2 7 -17 10 -32 11 -64 14 -67 67 -67 54 0 56 3 45 61 -2
13 -9 51 -15 84 -6 33 -13 71 -16 85 -3 14 -9 50 -15 80 -11 60 -17 92 -25
130 -10 50 -17 95 -20 115 -1 17 -9 20 -51 20 l-49 0 -36 -60 c-20 -33 -60
-98 -88 -145 -28 -47 -56 -92 -61 -100 -6 -8 -44 -71 -85 -139 -82 -138 -76
-137 -106 -30 -7 24 -14 49 -16 54 -18 58 -16 65 30 105 91 80 112 195 49 265
-43 49 -70 55 -223 55 l-139 0 -10 -26z m284 -89 c21 -28 19 -85 -3 -112 -11
-13 -24 -23 -29 -23 -5 0 -15 -7 -22 -15 -9 -11 -33 -15 -92 -15 l-79 0 6 38
c4 20 8 42 9 47 2 6 6 32 11 58 l8 49 88 -4 c74 -2 91 -6 103 -23z m440 -141
c3 -27 9 -64 12 -81 l5 -33 -81 0 c-93 0 -93 -16 -7 130 56 94 57 94 71 -16z"/>
<path d="M4895 7538 c-6 -26 -54 -260 -61 -298 -3 -14 -7 -31 -10 -39 -2 -8
-7 -30 -10 -50 -3 -20 -12 -63 -20 -96 -7 -33 -14 -64 -14 -68 0 -5 64 -7 143
-5 129 3 147 6 200 30 71 33 157 118 187 183 65 142 26 273 -100 338 -50 25
-62 27 -182 27 -124 0 -128 -1 -133 -22z m272 -103 c43 -25 58 -58 57 -124 -2
-132 -119 -233 -264 -227 -25 1 -44 7 -43 12 2 11 42 206 49 239 2 11 8 43 14
71 l11 51 72 -2 c51 0 81 -6 104 -20z"/>
<path d="M5583 7548 c-10 -13 -85 -134 -107 -173 -12 -20 -54 -90 -152 -250
-31 -49 -62 -102 -70 -117 l-15 -28 58 0 58 0 32 53 31 52 119 0 118 0 9 -40
c4 -22 10 -46 12 -52 3 -13 95 -19 106 -8 4 4 -7 74 -28 175 -3 14 -7 36 -9
50 -4 26 -39 209 -56 298 l-10 52 -43 0 c-24 0 -48 -6 -53 -12z m42 -252 c4
-28 8 -63 11 -78 l4 -28 -81 0 -81 0 22 38 c13 20 32 53 42 72 11 19 29 50 41
69 l21 35 7 -29 c5 -15 11 -51 14 -79z"/>
<path d="M6120 7463 c-11 -54 -25 -116 -30 -138 -5 -22 -12 -56 -15 -75 -3
-19 -10 -51 -15 -70 -5 -19 -12 -55 -15 -80 -4 -24 -9 -48 -12 -53 -3 -4 -7
-22 -10 -39 l-5 -30 149 4 c139 4 151 6 203 32 30 16 78 52 106 81 125 125
139 290 36 394 -59 59 -102 71 -256 71 l-114 0 -22 -97z m280 -22 c87 -43 89
-191 3 -278 -52 -53 -100 -76 -167 -78 -33 -1 -66 0 -72 2 -7 3 -3 40 13 116
13 62 31 144 39 183 l15 70 72 -1 c40 -1 83 -7 97 -14z"/>
<path d="M6704 7548 c-5 -7 -9 -19 -10 -28 -1 -8 -9 -51 -19 -95 -9 -44 -19
-89 -21 -100 -2 -11 -6 -31 -9 -45 -15 -68 -27 -128 -31 -155 -3 -16 -9 -46
-15 -65 -5 -19 -9 -45 -9 -57 l0 -23 200 0 c220 0 210 -3 223 68 7 37 23 34
-163 36 l-125 1 3 35 c1 19 7 51 12 71 l10 35 105 -1 c58 0 109 2 113 5 11 7
32 82 26 92 -3 4 -55 8 -116 8 -109 0 -110 0 -105 23 3 12 9 39 12 60 4 20 10
38 14 38 3 1 65 3 136 4 72 1 135 3 142 4 12 1 17 13 28 69 l7 32 -201 0
c-147 0 -202 -3 -207 -12z"/>
<path d="M8107 6819 c-54 -10 -130 -27 -170 -39 -264 -80 -531 -267 -698 -490
-23 -30 -42 -56 -43 -58 -2 -1 -3 17 -4 40 -4 129 -40 206 -137 303 -80 80
-157 123 -292 163 l-88 26 -822 4 c-785 3 -822 2 -827 -15 -4 -15 -43 -227
-71 -393 -11 -62 -24 -132 -45 -250 -28 -150 -65 -362 -85 -475 -8 -49 -20
-110 -25 -135 -5 -25 -12 -63 -15 -85 -3 -22 -7 -47 -10 -55 -2 -8 -6 -31 -9
-50 -3 -19 -12 -71 -21 -115 -8 -44 -18 -100 -21 -125 -3 -25 -8 -48 -10 -51
-2 -3 -6 -21 -9 -40 -3 -19 -14 -84 -25 -145 -11 -61 -22 -128 -26 -149 -3
-21 -8 -47 -10 -59 -2 -11 -7 -34 -9 -51 -3 -16 -10 -54 -15 -84 -6 -30 -10
-56 -10 -57 0 -5 1561 5 1600 10 121 17 237 38 306 57 306 84 504 252 578 489
10 30 20 61 22 69 3 9 21 -13 44 -53 56 -96 127 -182 226 -275 147 -137 330
-244 505 -294 82 -24 105 -29 219 -47 71 -11 342 -4 400 10 25 7 56 14 69 16
36 7 157 51 178 64 14 9 14 10 2 7 -15 -5 -116 -29 -179 -44 -14 -3 -92 -7
-175 -8 -129 -2 -192 2 -290 19 -92 17 -94 18 -100 46 -7 34 3 77 20 83 7 3
11 15 8 30 -5 26 -9 26 -60 11 -29 -8 -29 -1 2 44 27 39 21 52 -23 52 -13 0
-22 3 -20 8 24 50 33 62 44 62 13 0 54 46 54 61 0 5 -9 18 -21 30 -22 22 -22
24 34 81 l27 29 -26 35 c-24 31 -26 37 -14 59 11 21 11 28 -2 42 -30 36 -33
47 -10 41 26 -7 27 -6 6 34 -18 35 -18 34 44 77 12 8 24 31 27 52 13 77 5 375
-12 464 -8 39 -8 62 0 104 3 19 0 52 -8 75 -19 58 -36 167 -30 195 5 28 33 61
49 58 6 -1 26 -12 45 -24 19 -12 36 -21 37 -20 1 1 -3 30 -9 64 -11 62 -10 63
19 100 33 40 118 103 140 103 7 0 25 -24 39 -52 15 -29 32 -56 38 -60 6 -3 18
-26 27 -50 10 -29 28 -51 53 -67 20 -13 37 -30 37 -36 0 -7 9 -20 19 -29 11
-10 22 -35 26 -57 9 -51 50 -106 118 -154 31 -22 64 -55 74 -72 10 -18 23 -33
30 -33 7 0 20 -17 28 -37 9 -21 22 -44 29 -53 8 -8 16 -33 20 -55 13 -92 43
-157 94 -200 58 -49 72 -64 72 -80 0 -8 4 -15 10 -15 13 0 37 -48 45 -92 7
-36 7 -36 -34 -43 -23 -4 -41 -12 -41 -18 0 -5 11 -29 25 -52 13 -23 26 -53
29 -67 8 -47 35 -85 86 -122 28 -20 50 -44 50 -54 0 -16 26 -44 103 -112 l29
-25 29 35 30 35 -21 -39 c-25 -45 -17 -56 39 -56 30 0 33 -2 27 -25 -5 -19 -1
-28 19 -41 14 -9 25 -20 25 -25 0 -17 55 -71 90 -89 19 -10 55 -23 80 -30 25
-7 47 -16 50 -20 3 -4 30 -22 60 -40 30 -18 77 -51 105 -74 46 -38 55 -41 145
-53 56 -7 171 -10 280 -8 224 5 181 1 397 41 51 10 212 67 291 104 84 40 204
111 230 137 7 7 17 13 21 13 17 0 169 158 210 218 97 143 148 287 156 437 10
185 -84 347 -270 465 -99 63 -278 121 -421 135 -38 4 -78 11 -89 15 -11 4 -24
8 -30 9 -44 5 -145 56 -160 81 -18 29 -8 80 20 110 63 66 204 90 360 61 33 -6
74 -14 90 -17 45 -8 201 -62 275 -96 36 -16 66 -25 67 -21 2 5 69 118 149 253
80 135 150 252 155 262 19 34 -256 144 -446 177 -148 26 -263 35 -445 36 -271
0 -443 -39 -685 -156 -296 -143 -498 -350 -562 -573 l-16 -59 -39 83 c-140
304 -439 567 -763 672 -33 10 -103 29 -155 40 -129 29 -392 32 -533 7z m-1974
-624 c21 -10 46 -30 57 -45 24 -34 26 -99 5 -140 -16 -32 -83 -81 -130 -97
-36 -12 -255 -16 -255 -5 0 5 5 34 10 65 6 31 13 69 15 84 2 15 9 58 16 94
l11 65 117 -1 c88 -2 126 -6 154 -20z m897 -361 c-15 -67 -24 -154 -24 -246 0
-43 -2 -78 -4 -78 -2 0 -18 11 -34 26 -42 35 -118 72 -213 105 -69 24 -77 29
-55 35 78 23 275 145 319 198 20 24 23 14 11 -40z m2740 -354 c62 -49 99 -73
155 -99 55 -26 176 -69 215 -76 89 -17 204 -35 255 -40 74 -7 142 -29 175 -56
20 -17 25 -30 25 -69 0 -59 -31 -97 -109 -131 -42 -19 -68 -23 -156 -23 -125
0 -160 5 -271 40 -132 41 -263 111 -382 201 -31 24 -62 41 -68 37 -7 -4 -9 0
-5 12 25 81 45 207 45 287 l1 49 39 -49 c21 -27 58 -64 81 -83z m-3688 -147
c88 -40 109 -147 45 -237 -25 -35 -99 -83 -152 -98 -35 -10 -300 -19 -316 -12
-6 3 44 316 57 356 5 16 21 17 162 15 135 -2 164 -6 204 -24z"/>
<path d="M3577 6824 c-1 -1 -38 -4 -82 -7 -82 -6 -132 -15 -246 -41 -58 -14
-87 -23 -164 -55 -395 -162 -715 -518 -800 -891 -25 -110 -30 -162 -30 -295 0
-143 8 -210 40 -318 13 -45 22 -84 19 -86 -8 -8 -684 -6 -684 2 0 4 9 58 20
120 11 62 22 126 25 142 2 17 7 41 10 55 3 14 14 75 25 135 19 112 76 428 85
478 10 54 15 84 34 192 22 125 29 160 36 195 7 35 55 310 55 315 0 3 -223 5
-495 5 -389 0 -495 -3 -496 -12 0 -7 -2 -20 -4 -28 -2 -8 -8 -42 -14 -75 -5
-33 -12 -71 -15 -85 -3 -14 -14 -79 -26 -145 -11 -66 -23 -131 -25 -145 -3
-14 -8 -38 -11 -55 -2 -16 -14 -79 -25 -140 -11 -60 -29 -162 -40 -225 -11
-63 -22 -122 -24 -130 -3 -8 -7 -33 -10 -55 -3 -22 -7 -51 -10 -65 -3 -14 -9
-47 -15 -75 -5 -27 -12 -63 -15 -80 -10 -63 -85 -482 -91 -515 -3 -19 -7 -42
-9 -50 -1 -8 -4 -28 -8 -45 -7 -33 -67 -371 -70 -395 -2 -13 103 -15 886 -16
488 0 887 2 888 5 0 3 2 15 5 26 2 11 6 32 8 47 3 15 7 35 10 45 3 10 7 36 10
58 4 22 8 51 11 65 12 59 16 80 32 175 9 55 19 104 23 108 4 5 22 -16 41 -45
179 -280 515 -514 824 -573 105 -20 164 -27 263 -30 l117 -3 -105 34 c-455
146 -743 476 -807 924 -4 30 -7 125 -7 210 1 133 5 169 28 254 105 399 396
709 785 835 116 38 214 53 351 55 107 1 244 -9 260 -19 4 -2 20 -6 36 -9 131
-23 333 -121 462 -223 23 -19 42 -32 42 -29 0 10 -121 129 -180 178 -235 193
-517 294 -843 301 -43 1 -79 1 -80 1z"/>
</g>
</svg>
